<svg width="20" height="20" viewBox="0 0 20 20" fill="none" xmlns="http://www.w3.org/2000/svg">
<path d="M16.3073 8.13326C16.3069 8.13295 16.3066 8.13254 16.3063 8.13224L10.8668 2.69295C10.6349 2.46099 10.3267 2.33331 9.99877 2.33331C9.67088 2.33331 9.36262 2.46099 9.13066 2.69295L3.69402 8.12949C3.69219 8.13132 3.69026 8.13326 3.68853 8.13509C3.2124 8.61396 3.21322 9.39091 3.69087 9.86856C3.90909 10.0869 4.1972 10.2132 4.50536 10.2266C4.51798 10.2278 4.53059 10.2284 4.54331 10.2284H4.76V14.2313C4.76 15.0235 5.4046 15.668 6.19682 15.668H8.32492C8.5407 15.668 8.71558 15.493 8.71558 15.2773V12.139C8.71558 11.7775 9.0097 11.4835 9.37117 11.4835H10.6264C10.9878 11.4835 11.2819 11.7775 11.2819 12.139V15.2773C11.2819 15.493 11.4567 15.668 11.6725 15.668H13.8006C14.5929 15.668 15.2374 15.0235 15.2374 14.2313V10.2284H15.4385C15.7663 10.2284 16.0745 10.1007 16.3066 9.86866C16.7847 9.3903 16.7849 8.61192 16.3073 8.13326ZM15.7541 9.31624C15.6697 9.40057 15.5576 9.44707 15.4385 9.44707H14.8468C14.631 9.44707 14.4561 9.62195 14.4561 9.83773V14.2313C14.4561 14.5926 14.1621 14.8867 13.8006 14.8867H12.0632V12.139C12.0632 11.3468 11.4187 10.7022 10.6264 10.7022H9.37117C8.57885 10.7022 7.93425 11.3468 7.93425 12.139V14.8867H6.19682C5.83545 14.8867 5.54133 14.5926 5.54133 14.2313V9.83773C5.54133 9.62195 5.36645 9.44707 5.15067 9.44707H4.56915C4.56304 9.44666 4.55704 9.44635 4.55084 9.44625C4.43445 9.44422 4.32529 9.39803 4.24349 9.31613C4.06953 9.14217 4.06953 8.85904 4.24349 8.68497C4.24339 8.68507 4.2436 8.68497 4.24349 8.68497L9.68329 3.24537C9.76753 3.16103 9.87954 3.11464 9.99877 3.11464C10.1179 3.11464 10.2299 3.16103 10.3143 3.24537L15.7523 8.68334C15.7531 8.68415 15.7541 8.68497 15.7549 8.68578C15.9279 8.86005 15.9276 9.14257 15.7541 9.31624Z" fill="#161C24"/>
<path d="M15.7541 9.31624C15.6697 9.40057 15.5576 9.44707 15.4385 9.44707H14.8468C14.631 9.44707 14.4561 9.62195 14.4561 9.83773V14.2313C14.4561 14.5926 14.1621 14.8867 13.8006 14.8867H12.0632V12.139C12.0632 11.3468 11.4187 10.7022 10.6264 10.7022H9.37117C8.57885 10.7022 7.93425 11.3468 7.93425 12.139V14.8867H6.19682C5.83545 14.8867 5.54133 14.5926 5.54133 14.2313V9.83773C5.54133 9.62195 5.36645 9.44707 5.15067 9.44707H4.56915C4.56304 9.44666 4.55704 9.44635 4.55084 9.44625C4.43445 9.44422 4.32529 9.39803 4.24349 9.31613C4.06953 9.14217 4.06953 8.85904 4.24349 8.68497L9.68329 3.24537C9.76753 3.16103 9.87954 3.11464 9.99877 3.11464C10.1179 3.11464 10.2299 3.16103 10.3143 3.24537L15.7523 8.68334L15.7549 8.68578C15.9279 8.86005 15.9276 9.14257 15.7541 9.31624Z" fill="#161C24"/>
</svg>
