<svg width="59" height="50" viewBox="0 0 59 50" fill="none" xmlns="http://www.w3.org/2000/svg">
<g filter="url(#filter0_d_3702_2269)">
<path d="M22.3452 13.0722H26.4V21.3728C24.1254 23.9242 20.8618 25.2 16.6093 25.2C13.016 25.2 10.0162 24.0071 7.60971 21.6213C5.20324 19.2355 4 16.2532 4 12.6745C4 9.09585 5.21972 6.09703 7.65916 3.6781C10.1316 1.22603 13.1149 0 16.6093 0C20.1036 0 23.0045 1.01065 25.3121 3.03195L23.1364 6.16331C21.4552 4.73846 19.3948 4.02603 16.9554 4.02603C14.483 4.02603 12.4062 4.83786 10.7249 6.46153C9.07667 8.05206 8.25254 10.1231 8.25254 12.6745C8.25254 15.226 9.0437 17.297 10.626 18.8876C12.2413 20.445 14.2358 21.2236 16.6093 21.2236C18.9168 21.2236 20.8288 20.7266 22.3452 19.7325V13.0722Z" fill="#161C24"/>
<line x1="31.1001" y1="2.18557e-08" x2="31.1001" y2="16.8" stroke="#161C24"/>
<line x1="31.1001" y1="16.8" x2="31.1001" y2="33.6" stroke="#4295E4"/>
<path d="M45.4197 42C41.4866 42 37.9468 40.775 34.8003 38.325L37.2913 34.3219C40.0881 36.4656 42.8413 37.5375 45.5508 37.5375C46.687 37.5375 47.5829 37.275 48.2384 36.75C48.9376 36.1812 49.2872 35.4813 49.2872 34.65C49.2872 33.425 47.6703 32.3313 44.4364 31.3688C44.349 31.325 44.2398 31.2813 44.1086 31.2375C44.0212 31.1938 43.9557 31.1719 43.912 31.1719C38.8427 29.8156 36.308 27.5188 36.308 24.2813C36.308 22.0063 37.1602 20.1906 38.8645 18.8344C40.6126 17.4781 42.9069 16.8 45.7474 16.8C48.5443 16.8 51.2101 17.6313 53.7448 19.2938L51.8438 23.1C49.8772 21.7875 47.714 21.1313 45.3541 21.1313C42.601 21.1313 41.2244 22.0063 41.2244 23.7563C41.2244 24.5 41.4866 25.0469 42.011 25.3969C42.5791 25.7031 43.4968 26.0094 44.7642 26.3156C46.687 26.8406 48.304 27.3656 49.615 27.8906C50.489 28.2844 51.2538 28.7 51.9093 29.1375C53.57 30.275 54.4003 32.0031 54.4003 34.3219C54.4003 36.5969 53.5481 38.4562 51.8438 39.9C50.1831 41.3 48.0418 42 45.4197 42Z" fill="#4295E4"/>
</g>
<defs>
<filter id="filter0_d_3702_2269" x="0" y="0" width="58.4004" height="50" filterUnits="userSpaceOnUse" color-interpolation-filters="sRGB">
<feFlood flood-opacity="0" result="BackgroundImageFix"/>
<feColorMatrix in="SourceAlpha" type="matrix" values="0 0 0 0 0 0 0 0 0 0 0 0 0 0 0 0 0 0 127 0" result="hardAlpha"/>
<feOffset dy="4"/>
<feGaussianBlur stdDeviation="2"/>
<feComposite in2="hardAlpha" operator="out"/>
<feColorMatrix type="matrix" values="0 0 0 0 0 0 0 0 0 0 0 0 0 0 0 0 0 0 0.25 0"/>
<feBlend mode="normal" in2="BackgroundImageFix" result="effect1_dropShadow_3702_2269"/>
<feBlend mode="normal" in="SourceGraphic" in2="effect1_dropShadow_3702_2269" result="shape"/>
</filter>
</defs>
</svg>
